PathFileType	4	(X/Y/Z)	RBDS026\RBDS026runT35.trc
DataRate	CameraRate	NumFrames	NumMarkers	Units	OrigDataRate	OrigDataStartFrame	OrigNumFrames
150.000000	150.000000	4	33	mm	150.000000	2250	4500
Frame#	Time	L.ASIS			L.Heel.Bottom			L.Heel.Lateral			L.Heel.Top			L.Iliac.Crest			L.MT1			L.MT5			L.PSIS			L.Shank.Bottom.Lateral			L.Shank.Bottom.Medial			L.Shank.Top.Lateral			L.Shank.Top.Medial			L.Thigh.Bottom.Lateral			L.Thigh.Bottom.Medial			L.Thigh.Top.Lateral			L.Thigh.Top.Medial			R.ASIS			R.ASY			R.Heel.Bottom			R.Heel.Lateral			R.Heel.Top			R.Iliac.Crest			R.MT1			R.MT5			R.PSIS			R.Shank.Bottom.Lateral			R.Shank.Bottom.Medial			R.Shank.Top.Lateral			R.Shank.Top.Medial			R.Thigh.Bottom.Lateral			R.Thigh.Bottom.Medial			R.Thigh.Top.Lateral			R.Thigh.Top.Medial			
		X1	Y1	Z1	X2	Y2	Z2	X3	Y3	Z3	X4	Y4	Z4	X5	Y5	Z5	X6	Y6	Z6	X7	Y7	Z7	X8	Y8	Z8	X9	Y9	Z9	X10	Y10	Z10	X11	Y11	Z11	X12	Y12	Z12	X13	Y13	Z13	X14	Y14	Z14	X15	Y15	Z15	X16	Y16	Z16	X17	Y17	Z17	X18	Y18	Z18	X19	Y19	Z19	X20	Y20	Z20	X21	Y21	Z21	X22	Y22	Z22	X23	Y23	Z23	X24	Y24	Z24	X25	Y25	Z25	X26	Y26	Z26	X27	Y27	Z27	X28	Y28	Z28	X29	Y29	Z29	X30	Y30	Z30	X31	Y31	Z31	X32	Y32	Z32	X33	Y33	Z33	

2251	15	2202.016215106763	1012.09838239185	894.5395829763685	2173.331708366364	25.42744409290682	1003.253356828251	2199.430719874113	44.30348936633851	951.1771827823572	2182.446459426551	71.97562572501805	1001.476617340173	2115.293675508083	1085.015904777089	846.9389571513052	2401.37079348131	50.6182339953147	1003.063879713986	2345.463555262977	39.75022830808718	902.1742959110543	2028.393548807206	1051.369612008053	964.3290913236971	2255.220420485404	156.5718701701499	919.4776899124685	2209.250335600015	164.2402104942412	940.41345214645	2258.169800773596	231.1823995518644	889.1360911312781	2210.569828092316	242.6985524982834	909.0258092274402	2234.402913287659	622.4663402656888	843.9091257607314	2174.42878191874	600.4053476292069	878.1735401149955	2186.129169150237	719.2419335269415	822.614851480587	2130.87328247429	699.1641037240861	859.0944534713176	2196.317005118151	998.6757935563553	1129.931466257045	1587.9858006985	370.5041513621158	1043.11373274009	1607.088541549033	550.4446187598724	976.8396999720832	1601.685508963572	528.453478934342	1031.421263971735	1644.677615471098	529.2098096817937	992.4906758537466	2150.765543565827	1074.503389427077	1168.633729457886	1548.294058539422	332.6428147795833	991.468284995241	1523.995396517034	392.7041357810941	1081.763365278585	2032.16696511098	1049.204642049975	1065.262779502607	1691.380901811892	476.8705781530427	1088.065078772777	1698.014805864956	516.4713953014294	1050.122256932865	1764.263238105348	496.3105621186052	1118.812584289871	1769.66372596367	534.1247391207778	1081.333098349146	2062.314004732655	574.4217879218073	1196.853077546102	2004.452995957743	582.4223986056172	1155.352391270428	2071.768863651733	684.4314716945718	1203.648409755212	2013.692822323685	691.5183425963749	1168.348377257704	
2252	15.00666666666667	2200.171698326716	1006.936620438118	893.6720565915482	2150.294688238886	26.5935365280213	1003.852584030897	2176.934788880995	45.66012493382073	952.0789286010973	2160.753524746659	73.13639281759939	1002.830532927824	2113.411816937682	1078.108411832868	846.3748575991165	2379.895639999417	46.66331247771294	1004.236993679689	2323.081185889506	38.80724478029066	903.0408463530448	2026.303741910116	1045.776970948127	965.1701354056337	2239.267490252099	155.1836347977792	921.0839517371364	2193.398240615883	165.1806018385972	941.2494523766505	2246.22898441051	229.406524910481	890.2568573086701	2198.895106253362	243.3182330280142	909.4006142435768	2233.158687223414	618.303042928184	843.6121544364148	2173.916254705135	596.0521465211317	878.9545279802074	2183.866233743673	714.6287320580138	822.2568341117156	2129.222805702799	694.2920731678141	859.4593245382825	2195.003986754245	991.3253689048655	1129.535613161187	1599.605626255719	374.2578509925367	1046.878193748008	1620.964361659207	553.6561328803793	980.2586287936325	1616.027405775284	531.9128884685487	1034.872933291925	1658.397278160389	531.7134790448936	995.4733155678745	2149.53438036452	1066.079387855568	1169.020966570911	1558.19901016369	336.9982474304934	996.2059021251143	1536.72218700152	397.8128475277116	1086.82653430504	2029.979790400668	1042.449710696417	1065.641110569986	1704.998818153781	478.3255117907358	1090.855855985907	1712.536691936563	517.5326579897599	1052.671199030728	1778.728691507886	495.7295855160899	1120.936039536098	1785.059840330883	533.0663088927057	1083.1411190213	2072.542793766944	566.9328492442897	1197.943239013666	2014.144432129034	573.1044357677994	1156.93688227286	2078.909048169303	677.2291697932874	1204.517234971063	2020.128965319307	682.4708220054739	1169.982100298066	
2253	15.01333333333333	2198.147259572409	1002.082224036824	892.8496462975885	2127.159811934512	27.75262940827929	1004.27850593629	2154.221559051998	47.05132796263182	952.7487564742834	2138.560339444551	74.28882901408618	1003.826743444102	2111.472671876289	1071.558315458713	845.83055463395	2357.727104714247	44.40147248499525	1005.127100771684	2300.376094271215	38.66866138612026	903.7695496033141	2024.134364069542	1040.709638254605	965.9823813669777	2222.30417626602	154.3062947895086	922.2919006440857	2176.706137253297	166.5901664846202	941.8225901280452	2233.142680737696	227.9945111298238	891.0775033692271	2186.236174677638	244.2438857985538	909.6083539033322	2230.957231352169	614.1535193037055	843.293119813866	2172.434275363794	591.9194870697747	879.7952628094357	2180.966540631757	710.1855056176628	821.9430633536382	2126.901499490657	689.7819348453966	859.9175899739726	2193.411590140149	984.3276532741854	1129.23291764515	1612.412389309708	376.8898704829277	1050.850428896802	1634.820707264612	555.8868912206681	984.0501628247987	1630.613980474105	534.3082552902529	1038.706126321628	1672.212710513034	533.4345384961224	998.7264720244557	2147.634804955199	1058.245602914195	1169.277666596314	1569.404352799095	340.0618279304884	1001.194013728965	1550.582976998714	401.3209349112737	1092.217308862457	2027.652886330269	1036.26104837789	1065.920096001023	1719.237434592453	479.1687472841144	1093.824043874047	1727.428252965201	518.0076163529693	1055.391539554809	1793.734550514513	494.8294770845973	1123.122842431253	1800.7588044632	531.7052739354425	1085.00237619078	2083.283049110867	560.3093841965602	1198.803352700587	2024.374373112604	564.5664658030205	1158.292216254896	2086.400650978603	670.7935350549062	1205.198273246249	2026.960904068943	674.0960055490466	1171.441496496308	
2254	15.02	2195.993811417877	997.6104881226478	892.0606203651619	2104.007035175737	28.79548523529718	1004.522836328872	2131.363645112663	48.33358441836331	953.1643447045675	2115.990080603694	75.33146488494427	1004.452848158312	2109.442006117496	1065.537392802387	845.3408827665377	2335.031275186803	43.50678604333699	1005.659459251142	2277.441094629862	39.05057190669726	904.283536695673	2021.931558561107	1036.24097736598	966.7639275375931	2204.405037502054	153.764151420647	923.0529697432395	2159.229626588809	168.2414234289625	942.0833088465411	2218.914489178287	226.7939331360497	891.5557746141021	2172.575325238134	245.2725706254456	909.6058153586581	2227.71133454435	610.0026907268176	842.9438121245561	2169.837120954458	588.0011699345781	880.6073354487088	2177.412988429661	705.9323446658489	821.6741794881186	2123.851165973633	685.6714971900104	860.4274225274708	2191.565061646344	977.9091949027265	1129.047500693262	1626.276527203081	378.3385697999615	1054.95598981913	1648.510101503753	557.1317356284414	988.1695011830461	1645.281720016654	535.625395103579	1042.866723682946	1685.991810689548	534.380158487646	1002.202876084954	2145.013810545805	1051.27171645122	1169.402188494056	1581.828502222415	341.7554431578305	1006.322842464324	1565.414056088856	403.1497748853236	1097.818101530891	2025.251148682236	1030.777830509462	1066.121780824392	1733.967013278145	479.3828782385818	1096.925994229897	1742.539933982644	517.9203458123834	1058.267887388828	1809.140440702489	493.6440944882775	1125.357857841748	1816.598136764909	530.12103583895	1086.932754026044	2094.504269966591	554.7057322121605	1199.411062888982	2035.125225802818	556.970787640661	1159.390368396264	2094.216536719187	665.2603946311704	1205.673855727599	2034.18449295329	666.5407599862294	1172.690776117731	
